<?xml version="1.0" encoding="utf-8"?>
<!-- Generator: Adobe Illustrator 24.0.2, SVG Export Plug-In . SVG Version: 6.00 Build 0)  -->
<svg version="1.1" id="Layer_1" xmlns="http://www.w3.org/2000/svg" xmlns:xlink="http://www.w3.org/1999/xlink" x="0px" y="0px"
	 viewBox="0 0 1166.4 1166.4" style="enable-background:new 0 0 1166.4 1166.4;" xml:space="preserve">
<style type="text/css">
	.st0{fill-rule:evenodd;clip-rule:evenodd;fill:#FFFFFF;}
	.st1{fill:#BFBFBF;}
	.st2{fill-rule:evenodd;clip-rule:evenodd;fill:#BFBFBF;}
	.st3{fill-rule:evenodd;clip-rule:evenodd;fill:#C0C0C0;}
	.st4{fill-rule:evenodd;clip-rule:evenodd;fill:#FEFEFE;}
</style>
<g>
	<g>
		<path class="st0" d="M660.5,1086.9c-6.7,0-13.5-0.7-20.1-2.1c-37.6-8-66.4-39.2-71.5-77.6c-1.5-11.4-6.1-17.5-16.4-21.7
			c-32.7-13.4-64-30-93.1-49.5c-3.3-2.2-6-3.2-8.6-3.2c-3.4,0-6.4,1.7-9.9,5.4c-15.1,16.1-32.7,24.3-52.3,24.3
			c-8.1,0-16.6-1.4-25.3-4.3c-28.6-9.3-45.4-31.2-48.8-63.4c-1.9-18.3,3.9-35.8,16.8-50.6c8.1-9.3,5.8-15.4-0.7-22.8
			c-20-22.6-36.2-47.8-51.1-71.6c-4-6.4-8.4-9.2-14.4-9.2c-1.8,0-3.8,0.3-6,0.8c-12.1,2.9-24,4.4-35.2,4.4
			c-29.9,0-57.1-10.4-80.8-30.8c-22.3-19.3-36.2-44.7-41.2-75.7c-9.4-58,27.5-119,82.3-136.2c9.2-2.9,13-8.3,12.7-18.2
			c-0.3-13-0.2-26.3-0.2-39.2c0-3.1,0-6.2,0.1-9.4c0.4-81,19.3-161.1,56.2-237.8c26.8-55.8,61.2-105.9,102.3-148.7
			c19-10.6,39.3-17.5,63.9-24.5c43.7-12.4,89.5-20.1,136-22.7c10.1-0.6,20.4-0.9,30.5-0.9c62.6,0,124.6,10.5,189.5,32.1
			c0.5,0.1,0.9,0.3,1.4,0.5c3.1,1,6.2,2.1,9.7,2.1l0.4,0l0.2,0c0.9-0.2,2-0.4,3.1-0.8l0.3-0.1l0.2-0.2c0.8-0.5,1.5-1.1,2.3-1.8
			l0.1-0.1l0.6-0.8c0.4-0.5,0.8-1,1.1-1.5l0.1-0.1c0.9-1.5,1.7-3,2.5-4.6c0.7-1.4,1.5-3.1,2.2-4.8l0.2-0.5c0.5-1.3,1-2.5,1.7-3.5
			c0,0.1,0,0.2,0.1,0.3c0.3,1.5,0.6,3.4,2,5c3.3,9.7,11.2,13.7,18.8,17.6c2,1,4.1,2.1,6.1,3.3c0.2,0.4,0.3,0.7,0.4,1.2
			c-0.2,0.4-0.4,0.7-0.7,0.9l-0.8,0.2c-0.5,0-0.9-0.1-1.3-0.1c-2.9,0-5.3,0.9-7.1,2.7c-1,0.9-1.1,2.6-1.1,3.2c0.1,1,0.7,1.5,1,1.7
			c1.6,1,3.7,2.3,6,3.3c20.5,9.6,38.9,19.4,56.4,29.8c34.2,20.5,66.6,44.9,96.5,72.6c35.4,32.8,66.7,70.2,93,111
			c15.6,24.2,29,48.9,40,73.3c1.4,3,2.9,6,4.3,8.9c0.7,1.3,1.4,2.7,2,4l0,0.1c6.6,11.8,10.8,24.8,15,37.4c2,6.1,4,12.3,6.3,18.4
			c16.1,42.9,21.5,87.1,24.3,120.8c4.3,51,2.3,101.4-6.1,149.8c-8.4,48.8-23.5,96.9-44.7,143.1c-26.5,57.5-60.7,108.5-101.7,151.5
			c-2.4,2.5-4.9,5.1-7.6,7.1c-43.4,19.7-93.2,33.2-152.1,41.2c-22.3,3-46,4.6-70.4,4.6c-6.1,0-12.3-0.1-18.5-0.3c-0.4,0-0.8,0-1.2,0
			c-9.3,0-15.4,3.6-20.1,12C724.4,1069.3,693.3,1086.9,660.5,1086.9z"/>
		<path class="st1" d="M585.6,3.9c62.4,0,124.2,10.5,188.9,32c0.4,0.1,0.9,0.3,1.3,0.5c3.1,1,6.5,2.2,10.4,2.2l0.3,0l0.3,0l0.3-0.1
			c0.9-0.2,2.2-0.4,3.4-0.8l0.5-0.2l0.5-0.3c0.8-0.6,1.7-1.2,2.5-1.9l0.3-0.2l0.2-0.3c0.2-0.2,0.3-0.4,0.5-0.6
			c0.4-0.5,0.8-1,1.2-1.5l0.1-0.1l0.1-0.1c1-1.5,1.7-3.1,2.6-4.8c0.6-1.3,1.3-2.7,2-4.2c0.2,0.3,0.4,0.6,0.6,0.8
			c3.7,10.2,12.1,14.5,19.6,18.3c1.2,0.6,2.3,1.2,3.4,1.8c-2.9,0.2-5.4,1.3-7.3,3.2c-1.6,1.5-1.8,3.8-1.7,4.9
			c0.1,1.3,0.8,2.5,1.9,3.2c1.6,1,3.8,2.4,6.2,3.5c20.4,9.6,38.8,19.3,56.2,29.7c34.1,20.4,66.4,44.8,96.1,72.3
			c35.3,32.7,66.4,69.9,92.7,110.6c15.5,24.1,28.9,48.7,39.9,73c1.4,3,2.9,6,4.4,8.9c0.7,1.3,1.3,2.7,2,4l0,0.1l0.1,0.1
			c6.5,11.6,10.7,24.5,14.8,37c2,6.1,4,12.4,6.3,18.5c16.1,42.7,21.4,86.7,24.2,120.3c4.3,50.8,2.3,101.1-6,149.3
			c-8.4,48.6-23.4,96.5-44.6,142.6c-26.4,57.3-60.5,108.1-101.3,151c-2.4,2.5-4.6,4.9-7.2,6.8c-43.2,19.6-92.7,33-151.4,41
			c-22.3,3-45.8,4.5-70.1,4.5c-6,0-12.2-0.1-18.4-0.3c-0.4,0-0.8,0-1.2,0c-10,0-16.8,4-21.8,13c-15,26.5-45.4,43.7-77.5,43.7
			c-6.6,0-13.2-0.7-19.7-2.1c-36.8-7.8-64.9-38.4-70-75.9c-1.6-12-6.7-18.8-17.6-23.3c-32.6-13.3-63.8-29.9-92.8-49.3
			c-3.6-2.4-6.7-3.5-9.7-3.5c-5.1,0-9,3.5-11.4,6.1c-14.7,15.7-31.8,23.7-50.8,23.7c-7.9,0-16.2-1.4-24.6-4.2
			c-14.2-4.6-25.5-12.4-33.4-23.1c-7.7-10.3-12.4-23.3-14-38.6c-1.9-17.7,3.8-34.7,16.3-49c9-10.3,6.4-17.4-0.8-25.5
			c-19.9-22.5-36.1-47.6-50.9-71.3c-4.4-7-9.4-10.2-16.1-10.2c-2,0-4.1,0.3-6.5,0.8c-12,2.9-23.6,4.3-34.8,4.3
			c-29.4,0-56.1-10.2-79.5-30.4c-22-19-35.6-44-40.6-74.5c-4.6-28.1,1.7-57.7,17.5-83.1c15.2-24.5,38.3-43,63.4-50.8
			c10-3.1,14.4-9.3,14.1-20.1c-0.3-13-0.2-26.3-0.2-39.1c0-3.1,0-6.3,0.1-9.4c0.2-40.9,5.1-81.8,14.6-121.6
			c9.3-38.8,23.2-77.6,41.4-115.4c26.7-55.6,60.9-105.4,101.7-148c18.8-10.5,38.9-17.2,63.2-24.2c43.6-12.4,89.2-20,135.6-22.6
			C565.3,4.1,575.5,3.9,585.6,3.9 M585.6-0.1c-10.2,0-20.4,0.3-30.7,0.9c-46.5,2.6-91.8,10.1-136.4,22.7
			c-22.3,6.3-44.3,13.4-64.6,24.8c-42.4,44.2-76.3,94.3-102.8,149.5c-36.3,75.5-56,154.8-56.4,238.7c-0.1,16.2-0.3,32.4,0.1,48.6
			c0.2,8.6-2.8,13.5-11.3,16.2c-53.4,16.7-93.6,77.2-83.7,138.4c5,30.7,18.4,56.6,41.9,76.9c24.7,21.4,52.3,31.3,82.1,31.3
			c11.6,0,23.5-1.5,35.7-4.4c2-0.5,3.9-0.7,5.5-0.7c5.4,0,9.1,2.6,12.7,8.3c15.6,25,31.8,49.7,51.3,71.8c6.6,7.4,7.7,12.3,0.7,20.2
			c-12.8,14.7-19.3,32.6-17.3,52.1c3.3,31.5,19.4,55,50.2,65.1c8.9,2.9,17.5,4.4,25.9,4.4c20,0,38.2-8.3,53.7-24.9
			c3-3.2,5.7-4.8,8.5-4.8c2.3,0,4.6,1,7.5,2.9c29.5,19.7,60.7,36.2,93.5,49.6c9.7,4,13.8,9.5,15.2,20.1c5.4,40,35.5,71.3,73.1,79.3
			c6.9,1.5,13.8,2.2,20.5,2.2c35.2,0,66-19.2,81-45.7c4.5-7.9,9.9-11,18.4-11c0.4,0,0.7,0,1.1,0c6.2,0.2,12.4,0.3,18.5,0.3
			c23.6,0,47.2-1.4,70.6-4.6c52.8-7.1,104.2-19.3,152.9-41.5c3-2.2,5.5-4.8,8.1-7.5c42.7-44.8,76.2-95.9,102.1-152.1
			c43.1-93.5,59.7-191.4,51-293.8c-3.5-41.4-9.7-82.2-24.5-121.3c-7-18.7-11.5-38.4-21.4-56c-2.1-4.3-4.3-8.5-6.3-12.8
			c-11.5-25.6-25-50-40.2-73.5c-26.4-41-57.5-78.2-93.3-111.4c-29.8-27.6-62-51.9-96.8-72.8c-18.3-11-37.2-20.9-56.5-29.9
			c-2-0.9-3.9-2.1-5.7-3.2c-0.2-0.1,0-1.4,0.4-1.8c1.6-1.6,3.6-2.1,5.7-2.1c0.5,0,1,0,1.4,0.1c0.5-0.1,1-0.2,1.6-0.3
			c0.9-0.6,1.5-1.5,1.8-2.5c0-1.1-0.3-2.1-0.9-2.9c-9.2-5.6-20.7-8.4-24.5-20.5c-1.9-1.8-1.6-4.3-2.3-6.5c-0.2,0.1-0.5,0.1-0.7,0.1
			c-0.3,0-0.7-0.1-1-0.3c-0.4,0.3-0.8,0.5-1.1,0.8c-1.1,1.5-1.7,3.2-2.4,4.9c-0.7,1.6-1.4,3.2-2.2,4.7c-0.7,1.5-1.5,3-2.4,4.5
			c-0.5,0.7-1,1.4-1.5,2c-0.7,0.6-1.4,1.1-2.1,1.6c-0.9,0.3-1.9,0.5-2.8,0.7c-0.1,0-0.1,0-0.2,0c-3.6,0-7-1.3-10.4-2.5
			C713.8,11.4,650.6-0.1,585.6-0.1L585.6-0.1z"/>
	</g>
	<path class="st2" d="M1001.6,985c-0.7,1.4-1.4,2.8-2.1,4.2c-8.6,13-20.7,22.9-32.2,32.9c-39.7,34.8-83.4,63.9-131.1,86.7
		c-55.1,26.4-113,43.4-173.5,52c-25.1,3.6-50.5,5.8-75.6,5.7c-58.5-0.3-116.4-7.5-172.6-25.3c-28.4-9-56.3-19.3-83.2-32.1
		c-46.6-23.4-90.5-50.9-129.5-85.8c-1.6-1.5-3.6-2.5-5.4-3.8c-81.9-74.3-140-163.8-172-270c-4.9-16.2-8.1-32.8-12.7-49.1
		c-7.9-42.4-12.6-85-11.7-128.2C1.9,496,17.5,422.8,47.5,352.7c7.1-16.6,15.3-32.7,23.4-48.8c32.4-57.8,72.8-109.3,121.9-153.8
		c43.8-39.7,92.7-72,146.3-96.9c5.1-0.8,9.5-6.1,15.4-2.7c-0.3,0.7-0.5,1.4-1,1.9c-4.5,4.9-8.6,10-13,14.9
		c-19,21.1-35.9,43.8-51.2,67.6c-9.3,14.5-18.4,29.2-26,44.8c-4,8.3-8.3,16.4-12.3,24.7c-6,12.2-11.2,24.8-16,37.5
		c-4,10.7-7.9,21.4-11.2,32.3c-4.6,14.9-10.3,33.3-13.3,50c-1.6,9-4.4,17.9-5.5,26.9c-1,7.6-3.3,15.1-3,22.9
		c0.1,1.8-0.6,3.6-0.9,5.4c-0.4,2.9-0.9,5.8-1.1,8.7c-0.3,4.4-0.3,8.8-1.5,13.1c-0.8,3.1-0.7,6.6-0.7,9.9c-0.1,24.7-0.1,49.3-0.1,74
		c0,2.9,0.1,5.9,0.1,8.8c0,4.2-1.2,5.7-5.5,7.1c-8,2.6-16.2,5-23.6,9.1c-10,5.5-19.6,11.6-27.7,19.9c-5.6,5.8-11.3,11.5-16.2,18.1
		c-6.6,9-11.3,18.9-15.5,29.1c-2.7,6.4-4.2,13.3-5.9,20.1c-0.5,2.1-0.7,4.4-0.8,6.5c-0.2,3.7-0.4,7.3-1.3,10.9
		c-1.2,4.7-1,9.5,0.1,14.2c0.4,1.8,0.9,3.6,1,5.4c1,14.5,5.4,28.1,11.3,41.2c3.5,7.7,8.6,14.6,13.5,21.4c2.4,3.3,5,6.3,7.6,9.4
		c1.2,1.4,2.4,2.8,3.8,4c9.6,8.1,19.3,16,30.6,21.5c8.9,4.3,18.3,7.7,27.9,10.2c6.5,1.6,13,2.6,19.6,2.4c1.8-0.1,3.7,0.1,5.5,0
		c23.9-0.3,17.3,1.3,44.5-6.1c4-1.1,6.1-0.4,8.5,3.1c0.6,0.9,1.2,1.8,1.8,2.8c12.4,20.4,25.5,40.4,40.2,59.3
		c6.8,8.7,13.3,17.5,21.1,25.5c0.5,0.5,1,1.1,1.4,1.7c1.6,2,1.7,4.4-0.3,5.8c-3.7,2.6-6.1,6.2-8.9,9.7c-7.5,9.4-12.2,19.9-14.1,31.9
		c-0.8,5.1-2.1,10.1-1.5,15.3c1.6,14.4,5.4,28.1,14.8,39.7c5.8,10,15.3,15.9,25,21c8.1,4.3,16.9,7.3,26.4,6.9
		c2.6-0.1,5.2-0.1,7.7,0.1c10.2,0.7,19.8-2.2,28.7-6.6c10.3-5,19.7-11.5,26.1-21.4c0.8-1.2,1.8-2.3,2.9-3.3c0.8-0.7,1.8-1.3,3-0.7
		c1.6,0.9,3.3,1.7,4.8,2.7c11.9,8.1,24.2,15.4,36.6,22.6c15,8.7,30.6,16.1,46.1,23.7c7.2,3.6,14.9,6.3,22.3,9.5c2,0.9,4.1,1.7,6,2.7
		c1.7,0.9,2.7,2.4,3,4.4c0.1,0.7,0.3,1.5,0.2,2.2c-0.6,7.1,1.8,13.8,2.7,20.7c0.2,1.8,1,3.5,1.6,5.3c4.9,14.1,12.2,26.8,23.1,37.1
		c12.8,12.1,27.8,20.4,45.1,24.2c1.8,0.4,3.6,0.4,5.5,0.7c2.6,0.3,5.2,0.3,7.6,0.9c4.8,1.2,9.4,1.2,14.2,0
		c5.7-1.4,11.7-1.2,17.3-3.2c7.6-2.7,15.4-4.9,22.2-9.6c6.1-4.1,12.3-8,17.4-13.4c6.4-6.7,12.2-13.8,16.3-22.1c1-2,2.1-3.9,3.3-5.7
		c0.8-1.3,2.2-2,3.7-2.1c2.6-0.1,5.1-0.1,7.7-0.1c15.8,0,31.7,0,47.5-0.1c4.8,0,9.6,0.1,14.2-1.4c1.7-0.6,3.6-0.4,5.5-0.5
		c7-0.3,14,0.1,20.8-2c1.7-0.5,3.7-0.2,5.5-0.4c2.9-0.3,5.8-0.7,8.7-1.2c1.4-0.2,2.9-0.9,4.3-0.8c6.7,0.3,13.1-1.7,19.6-3
		c15.1-3,30.2-6.1,45.1-10.2c20.9-5.7,41.6-12.1,61.7-20.4C993.3,987.8,997.5,986.5,1001.6,985z"/>
	<path class="st2" d="M120.2,619c-0.7-10,1.4-20.8,4.9-31.3c3.6-10.9,8.8-21.1,15.9-30.1c13.2-16.8,29.3-29.9,49.9-36.7
		c6.3-2.1,12.6-3.8,19.2-4.5c5.8-0.6,11.5-2.4,17.5-1.8c2.5,0.3,5.1,0.6,7.6,0.9c1.4,0.2,2.9,0.9,4.3,0.8c7.5-0.2,14.5,2.3,21.4,4.8
		c8.7,3.1,16.9,7.3,24.6,12.3c5.5,3.6,10.4,8.2,15.3,12.6c4.7,4.2,8.1,9.5,11.7,14.6c8.4,11.8,14.1,24.9,17.1,39.1
		c0.4,1.8,0.5,3.6,0.7,5.4c0.1,1.5,0.2,2.9,0.2,4.4c-0.1,4.8,2.7,9.3,1.6,14.2c-0.9,4.3-1.4,8.7-1.9,13.1c-0.5,4.7-1.6,9.4-3,14
		c-6.1,20.2-17,37.5-33.2,51c-14,11.6-29.8,20.1-48.2,22.8c-10.4,3.1-21.1,2-31.8,1.8c-2.5,0-5-1.2-7.5-1.5
		c-8.4-1.3-16.4-4-24.1-7.4c-7.4-3.2-14.3-7.4-20.7-12.5c-2-1.6-4-3.2-6-4.9c-2.8-2.4-5.7-4.7-8.1-7.5c-11.1-13-19.7-27.4-24.1-44.1
		C121.3,641,120.1,631.1,120.2,619z"/>
	<path class="st2" d="M457.5,342.2c-15.7,0.8-30.2-3.9-44.4-10.4c-12.9-5.9-23.8-14.6-33.1-25.1c-8.4-9.4-14.5-20.3-19-32
		c-2.9-7.6-4.8-15.5-5.9-23.4c-1.2-8.7-1.4-17.6,0.5-26.3c0.4-1.8,0.7-3.6,1-5.4c2.2-11.6,6.1-22.5,12.1-32.8
		c4.3-7.4,10-13.6,15-20.4c2.4-3.3,6.2-5.2,9.3-7.7c13-10.7,27.8-17.6,44.2-21.2c1.1-0.2,2.2-0.6,3.2-0.6c5.2,0,10.2-1.1,15.3-2
		c5.2-1,10.1,1.6,15.2,1.7c8.2,0.1,16,2.5,23.5,5.4c6.5,2.5,12.7,5.8,18.7,9.3c5.1,2.9,9.7,6.5,13.8,10.8
		c5.8,6.1,12.2,11.7,16.8,18.9c8.6,13.5,14.9,27.8,16.4,43.9c0.3,3.6,1.5,7.2,1.7,10.8c0.3,5.5,0.4,11-1.5,16.4
		c-0.2,9.8-4.3,18.5-7.2,27.6c-0.2,0.7-0.4,1.4-0.8,2.1c-7.8,15.6-17.7,29.5-32.2,39.8c-8.7,6.2-17.8,11.6-28.1,15
		C481,340.2,469.6,342.8,457.5,342.2z"/>
	<path class="st2" d="M658.9,920.8c8.2,0.2,14.3,0.3,20.5,1.9c10.6,2.7,19.8,7.9,28.1,14.6c8.7,7,14.6,14.4,19.1,24
		c2.5,5.3,4.2,11,5.6,16.7c1,3.9,2.2,7.7,2.3,11.9c0.3,24.7-9.1,45.1-27.6,61.2c-7.6,6.6-16.6,10.8-26.3,13.5
		c-9.7,2.8-19.7,3.2-29.5,2c-9.4-1.2-18.8-3.4-26.9-9.2c-4.2-3-8.8-5.4-12.6-8.9c-12.3-11.2-20.4-25-23-41.6c-0.6-4-2-7.8-1.9-11.9
		c0.1-8.2,1.7-16.1,4.2-23.8c5.7-16.9,15.9-30.5,31.2-40.1c7.6-4.8,16-7.6,24.6-9.6C651.1,920.5,656.1,921,658.9,920.8z"/>
	<path class="st2" d="M637.3,689c-17.8,1.3-31.9-6.4-44-18.7c-2.3-2.4-4.3-5-5.8-8c-3.6-6.8-7.1-13.6-8.6-21.3
		c-1.4-7-1.7-13.8-0.1-20.7c0.4-1.8,0.7-3.6,1.2-5.4c3.4-14.3,12-25,23.4-33.7c7.1-5.4,15.1-8.8,24.2-9.8c4-0.4,7.8-1.8,11.9-1.7
		c5.2,0.2,10.1,1.7,15.1,3.1c9,2.4,16.6,7.2,23.5,13.7c8.8,8.4,14.6,18.3,17.9,29.8c0.4,1.4,0.8,2.8,0.9,4.3
		c0.5,9.2,0.9,18.4-2.2,27.3c-2.6,7.7-5.9,15-11.7,20.9c-1,1-2.1,2.1-3.1,3.2c-7.6,8.6-17.6,13-28.3,16.2c-1,0.3-2.1,0.6-3.2,0.6
		C644.7,689.1,641,689,637.3,689z"/>
	<path class="st2" d="M334.2,890.4c-0.9-14.1,5.3-25.6,13.6-36.3c3-3.8,7.1-6.5,11.2-8.8c10.4-5.9,21.6-9.7,33.7-7.8
		c18.5,2.9,32.8,12.3,41.5,29.2c2.4,4.6,4.1,9.4,4.4,14.7c0.1,2.2,0.6,4.3,0.9,6.5c0.1,0.7,0.4,1.5,0.3,2.2
		c-1.4,8.3-1.6,16.9-5.9,24.4c-4.2,7.4-9.4,13.8-16.6,18.8c-7.2,4.9-14.8,8.1-23.2,9.5c-5.8,1-11.6,0.8-17.5-0.5
		c-6.9-1.6-13.2-4.2-19.2-7.9c-12.3-7.7-18.6-19.5-22.3-32.9C334.2,897.9,334.5,894.1,334.2,890.4z"/>
	<path class="st2" d="M809.8,170.4c-0.5,16.7-7.6,29.7-22.4,37.8c-5.5,3-11.5,4.9-17.8,5.6c-4,0.5-8,0.1-12-1.3
		c-5.2-1.8-10.4-3.3-15.1-6.3c-8.1-5.2-13.3-12.4-16.7-21.2c-3.2-8.2-2.9-16.6-1.8-25c0.4-3.2,2.2-6.2,3.6-9.2
		c4.9-11.1,13.6-18,24.8-21.9c2.1-0.7,4.3-1.2,6.3-1.9c3.9-1.4,8.1-1.6,12-0.8c10.2,2,19.8,5.5,27.2,13.3
		c7.4,7.8,11.2,17.1,11.9,27.7C809.8,168.1,809.8,169.3,809.8,170.4z"/>
	<path class="st2" d="M1052.4,644.7c8.4-0.5,15.8,3.1,21.7,9.7c6.6,7.3,9,16.1,6.8,25.5c-2.1,8.8-7.2,16.1-15.6,20.3
		c-7.5,3.7-15.5,3.9-23.4,1.1c-3.8-1.3-7.3-3.3-10.4-6c-5.9-5.2-8.7-12-9.2-19.4c-0.6-8.6,2.4-16.7,8.7-22.9c3.1-3,6.9-5.4,11-7.1
		C1045.1,644.7,1048.4,644.9,1052.4,644.7z"/>
	<path class="st2" d="M809.8,833c-4.4-0.1-8.8,0-12.8-2.4c-4.6-2.6-8.3-6.1-11.1-10.5c-2.5-4.1-3.8-8.7-4.6-13.4
		c-0.2-1.1-0.2-2.2,0-3.3c1.4-9.1,5.3-16.8,13-22.2c3.4-2.4,7-3.9,11.3-3.9c2.2,0,4.4,0,6.6-0.1c6.2-0.4,11.5,2.2,16.3,5.7
		c2,1.4,3.3,3.9,4.9,5.8c6.1,7.2,5.9,15.6,4.5,24.1c-0.9,5.1-4.3,9.4-8,12.9c-2.1,2-4.7,3.4-7.2,5
		C818.7,833.2,814.2,832.9,809.8,833z"/>
	<path class="st3" d="M440.7,722.8c0.1,8.9-7.7,17-16.8,17c-8.5-0.1-17.7-7-17.7-17.6c0-10.7,9.6-17.5,17.8-17.5
		C432.9,704.7,441.3,712.9,440.7,722.8z"/>
	<path class="st3" d="M846.1,434.8c-0.3,0,1.2,0,2.6,0.3c2.6,0.5,4.9,1.7,6.6,3.7c4.2,4.8,4.3,13.7,0.4,18.5
		c-2.6,3.3-6.4,5-10.5,5.6c-5.1,0.7-11.4-3.5-13.3-8.2c-0.4-1-0.6-2.1-1-3.2c-0.9-2.1-1-4.2,0-6.4c0.4-1,0.6-2.1,1-3.1
		c1.9-4.5,5.2-7,10.1-7.2C842.9,434.8,843.6,434.8,846.1,434.8z"/>
	<path class="st0" d="M180.1,905.6c-8.4-0.7-16.5-3.6-23.7-9.1c-8.5-6.6-13.2-15.6-15.5-25.9c-0.5-2.5-0.7-5.2-0.3-7.7
		c1.7-11.1,5.5-21.2,14.6-28.7c4.3-3.6,9.1-6.1,14.4-7.8c2.8-0.9,5.7-1.4,8.6-2c1.4-0.3,2.9-0.4,4.4-0.2c12.5,1.5,23.2,6.5,31,16.8
		c2.7,3.5,4.6,7.5,5.9,11.7c0.9,2.8,1.5,5.7,2,8.5c0.3,1.4,0.5,3,0.3,4.4c-0.9,5-1.6,10.1-3.7,14.9c-4.8,11.1-13.1,18.3-24.3,22.5
		c-2.4,0.9-4.9,1.6-7.4,2.1C184.4,905.5,182.5,905.4,180.1,905.6z"/>
	<path class="st4" d="M107.2,452.1c0.7,8.6-8.1,14.7-14,15.9c-8.1,1.7-15.2-2.9-18.4-8.8c-0.9-1.6-1.5-3.3-2.2-5
		c-0.8-2.1-0.9-4.3-0.3-6.4c1.6-5.5,4.9-9.7,9.9-12.6c7.7-4.4,17.3-2,22.1,5.5C106.7,444.2,107.3,446.7,107.2,452.1z"/>
	<path class="st4" d="M465,1046.1c0,1.1,0.1,2.2,0,3.3c-0.7,5.9-3.7,10.2-9.4,12.4c-4.2,1.6-8.6,1.3-12.9,0.4c-1-0.2-2-0.9-2.8-1.6
		c-1.6-1.4-3.4-2.9-4.6-4.6c-4.2-6.1-5.5-13,1.3-21c0.9-1.1,2.2-2,3.4-2.6c1.3-0.7,2.8-0.9,4.1-1.5c4.9-2.3,9.3-1,13.5,1.6
		C463,1035.9,465.1,1039.8,465,1046.1z"/>
</g>
</svg>
